<svg width="24" height="24" viewBox="0 0 24 24" fill="none" xmlns="http://www.w3.org/2000/svg">
  <rect width="24" height="24" rx="12" fill="#111827"/>
  <path d="M14.64 6.27C13.92 6.79 13.41 7.56 13.49 8.46C14.33 8.53 15.18 8.02 15.68 7.34C16.15 6.72 16.47 5.86 16.39 5C15.55 5.03 15.05 5.48 14.64 6.27Z" fill="white"/>
  <path d="M17.8 13.92C17.77 11.58 19.69 10.49 19.77 10.45C18.69 8.92 17.01 8.71 16.41 8.69C14.98 8.54 13.61 9.56 12.88 9.56C12.14 9.56 11.03 8.71 9.83 8.74C8.27 8.77 6.82 9.64 6.02 10.99C4.36 13.77 5.59 17.86 7.18 20.09C7.96 21.18 8.88 22.4 10.11 22.35C11.28 22.3 11.73 21.62 13.13 21.62C14.52 21.62 14.93 22.35 16.19 22.32C17.49 22.3 18.31 21.2 19.08 20.1C19.99 18.84 20.36 17.61 20.38 17.55C20.35 17.54 17.83 16.58 17.8 13.92Z" fill="white"/>
</svg>
